<?xml version="1.0" encoding="UTF-8" standalone="no"?>
<svg width="300px" height="262px" viewBox="0 0 300 262" version="1.1" xmlns="http://www.w3.org/2000/svg" xmlns:xlink="http://www.w3.org/1999/xlink" xmlns:sketch="http://www.bohemiancoding.com/sketch/ns">
    <!-- Generator: Sketch 3.3 (11970) - http://www.bohemiancoding.com/sketch -->
    <title>logo-red</title>
    <desc>Created with Sketch.</desc>
    <defs></defs>
    <g id="Page-1" stroke="none" stroke-width="1" fill="none" fill-rule="evenodd" sketch:type="MSPage">
        <g id="logo-red" sketch:type="MSLayerGroup">
            <path d="M293.879065,261.679037 L6.37801906,261.679037 C3.38954165,261.679037 0.944817133,259.525424 0.944817133,256.892808 L0.754431506,4.86295835 C0.754431506,2.23034166 3.19915603,0.0767290597 6.18907575,0.0767290597 L293.690122,0.0767290597 C296.678599,0.0767290597 299.123324,2.23034166 299.123324,4.86295835 L299.313709,256.892808 C299.313709,259.525424 296.868985,261.679037 293.879065,261.679037 Z" id="Fill-1" fill="#F05F55" sketch:type="MSShapeGroup"></path>
            <path d="M183.166939,104.086589 L173.902947,104.086589 C173.243809,104.086589 172.702941,103.545142 172.702941,102.883535 L172.702941,91.9489202 C172.702941,91.4682778 173.013039,90.7458665 173.676504,90.7458665 L179.685189,90.7458665 C180.954427,90.7458665 181.991452,89.7035094 181.991452,88.4309652 L181.991452,74.3634883 C181.991452,73.4340533 181.434718,72.6320175 180.642887,72.2657448 L173.902947,72.2657448 C173.243809,72.2657448 172.702941,71.7242982 172.702941,71.0612433 L172.702941,60.1266285 C172.702941,59.4650213 173.243809,58.9235747 173.902947,58.9235747 L183.524633,58.9235747 C184.469349,58.752744 185.193392,57.9217538 185.193392,56.9271714 L185.193392,41.0109586 C185.193392,39.8933202 184.281848,38.9783623 183.166939,38.9783623 L127.917607,38.9783623 C126.802697,38.9783623 125.891154,39.8933202 125.891154,41.0109586 L125.891154,121.782047 C125.891154,122.901133 126.802697,123.816091 127.917607,123.816091 L183.166939,123.816091 C184.281848,123.816091 185.193392,122.901133 185.193392,121.782047 L185.193392,106.120633 C185.193392,105.001547 184.281848,104.086589 183.166939,104.086589" id="Fill-2" fill="#FFFFFF" sketch:type="MSShapeGroup"></path>
            <path d="M256.220211,203.100373 L246.954777,203.100373 C246.295639,203.100373 245.756213,202.558927 245.756213,201.89732 L245.756213,190.962705 C245.756213,190.482062 246.066311,189.758203 246.729776,189.758203 L252.738462,189.758203 C254.006257,189.758203 255.044724,188.717294 255.044724,187.44475 L255.044724,173.375825 C255.044724,172.44639 254.487991,171.645802 253.696159,171.278082 L246.954777,171.278082 C246.295639,171.278082 245.756213,170.736635 245.756213,170.075028 L245.756213,159.140413 C245.756213,158.478806 246.295639,157.937359 246.954777,157.937359 L256.577905,157.937359 C257.522622,157.766529 258.246664,156.935538 258.246664,155.939508 L258.246664,140.024743 C258.246664,138.905657 257.335121,137.990699 256.220211,137.990699 L200.970879,137.990699 C199.85597,137.990699 198.944426,138.905657 198.944426,140.024743 L198.944426,220.795832 C198.944426,221.914918 199.85597,222.829876 200.970879,222.829876 L256.220211,222.829876 C257.335121,222.829876 258.246664,221.914918 258.246664,220.795832 L258.246664,205.134417 C258.246664,204.015331 257.335121,203.100373 256.220211,203.100373" id="Fill-3" fill="#FFFFFF" sketch:type="MSShapeGroup"></path>
            <path d="M262.060146,119.759585 C254.062508,111.12829 228.530641,83.5622892 227.731598,82.7081355 C228.6792,82.7081355 242.081194,82.6502268 242.081194,82.6502268 C254.098565,82.6502268 263.839963,72.8723387 263.839963,60.8099514 C263.839963,48.7475641 254.098565,38.969676 242.081194,38.969676 L200.988187,38.969676 C199.863181,38.969676 198.944426,39.8918725 198.944426,41.0196449 L198.944426,121.766122 C198.944426,122.893895 199.863181,123.816091 200.988187,123.816091 L260.786582,123.816091 C263.154864,123.816091 263.839963,121.680707 262.060146,119.759585" id="Fill-4" fill="#FFFFFF" sketch:type="MSShapeGroup"></path>
            <path d="M185.193392,195.883499 C185.193392,194.76586 184.281848,193.850902 183.166939,193.850902 L156.515836,193.850902 C155.400926,193.850902 154.489383,192.934497 154.489383,191.816858 L154.489383,140.587905 C154.489383,139.470267 153.577839,138.553862 152.462929,138.553862 L127.917607,138.553862 C126.802697,138.553862 125.891154,139.470267 125.891154,140.587905 L125.891154,220.798727 C125.891154,221.917813 126.802697,222.832771 127.917607,222.832771 L183.166939,222.832771 C184.281848,222.832771 185.193392,221.917813 185.193392,220.798727 L185.193392,195.883499" id="Fill-5" fill="#FFFFFF" sketch:type="MSShapeGroup"></path>
            <path d="M112.013195,180.410287 C112.013195,156.981865 95.0385861,137.987804 74.1004941,137.987804 L50.9614289,137.990699 C49.8465191,137.990699 48.9349758,138.905657 48.9349758,140.024743 L48.9349758,220.795832 C48.9349758,221.914918 49.8465191,222.829876 50.9614289,222.829876 L74.1004941,222.832771 L74.1221288,222.832771 C94.5106986,222.832771 112.013195,204.849217 112.013195,180.410287" id="Fill-6" fill="#FFFFFF" sketch:type="MSShapeGroup"></path>
            <path d="M109.833857,38.9740192 L35.5849049,38.9740192 C33.8166263,38.9740192 33.1661421,40.187207 34.139705,41.6696703 L56.7321326,76.6262717 C57.7056955,78.1087351 58.5032959,80.7739841 58.5032959,82.5503342 L58.5148344,120.58768 C58.5162767,122.36403 59.962919,123.816091 61.73264,123.816091 L83.6875642,123.816091 C85.4558429,123.816091 86.9039275,122.36403 86.9039275,120.58768 L86.915466,82.5503342 C86.9169083,80.7739841 87.7130664,78.1087351 88.6866293,76.6262717 L111.280499,41.6696703 C112.254062,40.187207 111.603578,38.9740192 109.833857,38.9740192" id="Fill-7" fill="#FFFFFF" sketch:type="MSShapeGroup"></path>
        </g>
    </g>
</svg>