<?xml version="1.0" encoding="UTF-8" standalone="no"?>
<svg width="179px" height="35px" viewBox="0 0 179 35" version="1.1" xmlns="http://www.w3.org/2000/svg" xmlns:xlink="http://www.w3.org/1999/xlink" xmlns:sketch="http://www.bohemiancoding.com/sketch/ns">
    <!-- Generator: Sketch 3.4 (15588) - http://www.bohemiancoding.com/sketch -->
    <title>yerdle-logotype</title>
    <desc>Created with Sketch.</desc>
    <defs></defs>
    <g id="Screens" stroke="none" stroke-width="1" fill="none" fill-rule="evenodd" sketch:type="MSPage">
        <g id="Start-Screen" sketch:type="MSArtboardGroup" transform="translate(-71.000000, -230.000000)" fill="#FFFFFF">
            <g id="Swap-Well.-+-Group-3" sketch:type="MSLayerGroup" transform="translate(71.000000, 230.142857)">
                <g id="yerdle-logotype" sketch:type="MSShapeGroup">
                    <path d="M59.156219,26.2876802 L55.4815024,26.2876802 C55.2200443,26.2876802 55.0054999,26.0729064 55.0054999,25.8104689 L55.0054999,21.4730717 C55.0054999,21.2824169 55.1285053,20.9958604 55.3916798,20.9958604 L57.7751251,20.9958604 C58.2785894,20.9958604 58.6899425,20.5823921 58.6899425,20.0776162 L58.6899425,14.497517 C58.6899425,14.1288411 58.4691048,13.8107003 58.1550118,13.6654121 L55.4815024,13.6654121 C55.2200443,13.6654121 55.0054999,13.4506383 55.0054999,13.1876265 L55.0054999,8.85022929 C55.0054999,8.58779178 55.2200443,8.37301797 55.4815024,8.37301797 L59.2981044,8.37301797 C59.672842,8.30525511 59.9600454,7.975629 59.9600454,7.58111134 L59.9600454,1.26768023 C59.9600454,0.824350341 59.5984666,0.461417063 59.156219,0.461417063 L37.2406507,0.461417063 C36.7984032,0.461417063 36.4368243,0.824350341 36.4368243,1.26768023 L36.4368243,33.3068787 C36.4368243,33.7507829 36.7984032,34.1137162 37.2406507,34.1137162 L59.156219,34.1137162 C59.5984666,34.1137162 59.9600454,33.7507829 59.9600454,33.3068787 L59.9600454,27.0945177 C59.9600454,26.6506135 59.5984666,26.2876802 59.156219,26.2876802" id="Fill-2"></path>
                    <path d="M177.379662,26.2859574 L173.704373,26.2859574 C173.442915,26.2859574 173.228943,26.0711836 173.228943,25.8087461 L173.228943,21.4713489 C173.228943,21.2806941 173.351948,20.9935633 173.615123,20.9935633 L175.998568,20.9935633 C176.50146,20.9935633 176.913386,20.5806693 176.913386,20.0758934 L176.913386,14.49522 C176.913386,14.1265441 176.692548,13.8089775 176.378455,13.6631151 L173.704373,13.6631151 C173.442915,13.6631151 173.228943,13.4483413 173.228943,13.1859037 L173.228943,8.84850651 C173.228943,8.58606899 173.442915,8.37129519 173.704373,8.37129519 L177.521548,8.37129519 C177.896285,8.30353233 178.183489,7.97390622 178.183489,7.57881429 L178.183489,1.26595745 C178.183489,0.822053295 177.82191,0.459120017 177.379662,0.459120017 L155.464094,0.459120017 C155.021846,0.459120017 154.660267,0.822053295 154.660267,1.26595745 L154.660267,33.305156 C154.660267,33.7490601 155.021846,34.1119934 155.464094,34.1119934 L177.379662,34.1119934 C177.82191,34.1119934 178.183489,33.7490601 178.183489,33.305156 L178.183489,27.0927949 C178.183489,26.6488907 177.82191,26.2859574 177.379662,26.2859574" id="Fill-3"></path>
                    <path d="M90.4505246,32.5046354 C87.278128,29.0808882 77.1504877,18.1463747 76.8335341,17.8075604 C77.2094159,17.8075604 82.5255402,17.78459 82.5255402,17.78459 C87.2924309,17.78459 91.1565188,13.9060277 91.1565188,9.12128073 C91.1565188,4.33653377 87.2924309,0.457971493 82.5255402,0.457971493 L66.2253143,0.457971493 C65.7790619,0.457971493 65.4146224,0.823776079 65.4146224,1.2711258 L65.4146224,33.3005619 C65.4146224,33.7479116 65.7790619,34.1137162 66.2253143,34.1137162 L89.9453441,34.1137162 C90.8847625,34.1137162 91.1565188,33.2666804 90.4505246,32.5046354" id="Fill-4"></path>
                    <path d="M149.20569,23.4232638 C149.20569,22.9799339 148.844112,22.6170006 148.401864,22.6170006 L137.83026,22.6170006 C137.388012,22.6170006 137.026433,22.2534931 137.026433,21.8101632 L137.026433,1.48934518 C137.026433,1.04601529 136.664855,0.682507746 136.222607,0.682507746 L126.486296,0.682507746 C126.044048,0.682507746 125.682469,1.04601529 125.682469,1.48934518 L125.682469,33.3063045 C125.682469,33.7502086 126.044048,34.1131419 126.486296,34.1131419 L148.401864,34.1131419 C148.844112,34.1131419 149.20569,33.7502086 149.20569,33.3063045 L149.20569,23.4232638" id="Fill-5"></path>
                    <path d="M120.177546,17.2855567 C120.177546,7.99228259 113.444284,0.457971493 105.138841,0.457971493 L95.9603452,0.459120017 C95.5180976,0.459120017 95.1565188,0.822053295 95.1565188,1.26595745 L95.1565188,33.305156 C95.1565188,33.7490601 95.5180976,34.1119934 95.9603452,34.1119934 L105.138841,34.1131419 L105.147423,34.1131419 C113.234889,34.1131419 120.177546,26.9796654 120.177546,17.2855567" id="Fill-6"></path>
                    <path d="M31.0674299,0.459694278 L1.61534563,0.459694278 C0.913928441,0.459694278 0.655903032,0.940925429 1.04208297,1.52896922 L10.0037459,15.3950878 C10.3899259,15.9831316 10.7063074,17.040347 10.7063074,17.7449659 L10.7108843,32.833113 C10.7114564,33.5377319 11.2852912,34.1137162 11.9872805,34.1137162 L20.6960672,34.1137162 C21.3974843,34.1137162 21.9718912,33.5377319 21.9718912,32.833113 L21.9764682,17.7449659 C21.9770403,17.040347 22.2928497,15.9831316 22.6790296,15.3950878 L31.6412647,1.52896922 C32.0274446,0.940925429 31.7694192,0.459694278 31.0674299,0.459694278" id="Fill-7"></path>
                </g>
            </g>
        </g>
    </g>
</svg>